<?xml version="1.0" standalone="no"?>
<!DOCTYPE svg PUBLIC "-//W3C//DTD SVG 20010904//EN"
 "http://www.w3.org/TR/2001/REC-SVG-20010904/DTD/svg10.dtd">
<svg version="1.0" xmlns="http://www.w3.org/2000/svg"
 width="128.000000pt" height="128.000000pt" viewBox="0 0 128.000000 128.000000"
 preserveAspectRatio="xMidYMid meet">
<metadata>
Created by potrace 1.11, written by Peter Selinger 2001-2013
</metadata>
<g transform="translate(0.000000,128.000000) scale(0.100000,-0.100000)"
fill="#000000" stroke="none">
<path d="M594 1225 c-33 -7 -69 -15 -80 -20 -10 -4 -25 -9 -31 -11 -16 -3 -80
-54 -110 -86 -12 -12 -34 -50 -50 -83 -23 -49 -36 -64 -69 -80 -57 -28 -72
-42 -79 -77 -11 -47 13 -114 56 -158 36 -37 57 -45 102 -42 20 2 20 1 5 -35
-6 -15 -11 -31 -10 -35 3 -13 -37 -19 -57 -9 -11 6 -25 27 -32 46 -7 19 -17
35 -21 35 -4 0 -8 9 -8 19 0 19 -23 35 -34 24 -12 -12 -6 -41 10 -47 8 -3 12
-10 9 -16 -3 -5 -2 -10 2 -10 5 0 16 -13 25 -28 16 -27 16 -29 -3 -45 -20 -17
-54 -24 -45 -9 3 5 -1 9 -9 9 -8 0 -13 -5 -12 -11 1 -6 -4 -10 -11 -8 -24 5
-10 -13 97 -127 61 -65 111 -111 122 -111 11 0 19 -7 19 -15 0 -30 55 -75 120
-97 60 -21 65 -25 65 -53 0 -25 -5 -30 -31 -35 -42 -9 -54 -18 -54 -41 0 -20
24 -25 100 -19 85 6 110 2 110 -14 0 -18 19 -25 61 -21 55 6 89 22 83 40 -4 8
0 22 7 31 7 9 14 23 15 31 5 30 35 61 87 91 86 49 124 132 101 222 -6 25 -10
80 -8 122 3 65 1 77 -13 80 -10 2 -17 14 -18 33 -4 49 -14 127 -26 182 -6 29
-10 55 -10 58 0 2 -6 23 -14 46 -8 22 -14 43 -13 47 1 4 -11 33 -27 66 -36 74
-97 137 -140 144 -11 2 -22 7 -25 11 -3 4 -12 6 -20 6 -8 -1 -28 2 -45 5 -16
3 -57 1 -91 -5z"/>
</g>
</svg>
