<?xml version="1.0" ?><!DOCTYPE svg  PUBLIC '-//W3C//DTD SVG 1.1//EN'  'http://www.w3.org/Graphics/SVG/1.1/DTD/svg11.dtd'><svg enable-background="new 0 0 512 512" height="512px" id="Calque_1" version="1.1" viewBox="0 0 512 512" width="512px" xml:space="preserve" xmlns="http://www.w3.org/2000/svg" xmlns:xlink="http://www.w3.org/1999/xlink"><g><path d="M233.93,437.768c2.048,1.97,3.582,3.942,2.727,3.285c4.359,3.826,4.144,4.218,5.19,4.231   c2.88,2.374,5.332,5.527,2.134,2.748l7.89,7.259l-4.449-4.609c1.36,0.658,5.252,5.169,7.65,7.268   c-0.54,0.417-1.079,0.834-1.57,1.214l0.903-1.373l0.165-0.253h0l0.002-0.002l0.046,0.023l0.104,0.052   c0.071,0.035,0.152,0.075,0.192,0.09c0.098,0.039,0.186,0.071,0.272,0.092c0.178,0.041,0.315,0.041,0.462,0.033   c-0.181-0.075-0.316-0.128-0.468-0.211l-0.224-0.129l-0.164-0.099l-0.072-0.043c-0.01-0.007-0.027-0.017-0.021-0.014l0,0.001   l-1.2,1.832l1.745-1.389l-7.021-6.949l0.552,0.268c-2.02-1.714-5.582-5.404-6.786-6.729c0.27,0.129,0.257-0.112,1.716,1.32   c-9.866-9.932-3.416-1.916-11.773-9.988C232.46,436.202,233.092,436.845,233.93,437.768z" fill="#202020"/><path d="M226.571,428.31l-3.991-2.915l-5.654-5.933c-0.251,0.12-4.621-3.949-1.928-0.929   c0.588,0.529,1.748,1.578,2.623,2.487c-1.047-0.246-7.904-7.504-6.607-5.396c4.688,4.476,5.303,5.267,8.448,7.761   c4.163,4.237,7.129,7.389,8.943,9.496c1.308,1.186,1.729,1.114,3.363,2.649c-0.356-0.345-0.683-0.663-1.091-1.06l0.432-0.774   c-1.448-1.194-2.637-2.503-4.115-3.956l7.486,6.076c-1.622-2.752-8.616-9.083-11.044-11.979   C226.229,427.649,220.553,421.462,226.571,428.31z" fill="#202020"/><path d="M231.767,435.532c0.044,0.044,0.117,0.115,0.167,0.165C231.884,435.647,231.811,435.576,231.767,435.532z" fill="#202020"/><path d="M263.414,172.302c0.015,2.039,0.217,2.64,0.318,2.935l-0.017-22.958c-0.224,0.719-0.501,7.332-0.636,2.913   c-0.248,1.971-0.035,7.973,0.268,8.844l-0.342-1.664c0.438,5.289-0.423,8.902-0.682,5.453l0.005,0.446l1.685,14.65   C264.113,177.541,263.434,178.778,263.414,172.302z" fill="#202020"/><path d="M280.381,441.196c2.048-2.158,2.249-2.474,1.951-2.294C281.623,439.7,280.958,440.468,280.381,441.196z" fill="#202020"/><path d="M264.41,186.344l0.526,4.589C264.795,189.095,264.606,187.481,264.41,186.344z" fill="#202020"/><path d="M256.39,154.553c-0.028-0.009-0.053-0.059-0.09,0.062l0.27,2.061c0-0.031,0-0.04,0-0.053   C256.504,155.865,256.445,155.182,256.39,154.553z" fill="#202020"/><path d="M266.391,290.511c0.012,0.492,0.022,0.917,0.037,1.506C266.424,291.469,266.408,290.972,266.391,290.511z" fill="#202020"/><path d="M253.377,92.362l0.507,10.207c-0.24-1.36-0.168,3.563-0.448,1.413c0.038,0.778,0.133,4.425,0.257,3.43   l-0.016-2.082c0.699,5.382,0.968,2.122,1.501,11.046c0.415-5.54,0.035-7.969-0.283-10.904c-0.036-0.995-0.066-1.828-0.097-2.671   l-0.978-8.487L253.377,92.362z" fill="#202020"/><path d="M303.246,405.403l-0.04,0.117C303.265,405.435,303.265,405.409,303.246,405.403z" fill="#202020"/><path d="M303.049,405.995l0.157-0.475C302.898,405.988,301.488,407.549,303.049,405.995z" fill="#202020"/><path d="M263.957,184.658c0.129,0.14,0.288,0.729,0.453,1.686l-0.396-3.424   C263.998,183.406,263.977,184.048,263.957,184.658z" fill="#202020"/><path d="M262.429,176.869l-0.1-8.599l-0.362-3.17C262.104,168.391,262.198,172.24,262.429,176.869z" fill="#202020"/><path d="M266.801,276.93c0.107,17.811-0.822-4.375-1.021,3.808c0.098,4.945,0.488,6.69,0.611,9.773   c-0.334-14.127,1.287,1.915,1.08-12.332c0.707,2.026,0.77,10.274,0.578,15.108c-0.681,5.472-0.498-4.781-1.166-6.021   c0.111,5.717,0.234,4.709,0.615,7.136c-0.158,8.977,0.836,18.572-0.107,23.933c0.15,6.498,0.476,6.07,0.834,9.808   c0.73,0.743,0.383-9.665,0.957-12.072c-0.061,0.499-0.184,1.472-0.287,1.189l0.154-5.617c-0.254,5.333-0.729-0.74-0.786-3.591   c-0.015-2.073-0.048-6.194,0.153-5.627l0.158,3.139c0.229-4.041-0.533-8.915-0.138-13.182c0.163-0.223,0.241,1.392,0.343,1.636   c-0.498-4.78-0.469-9.392-0.822-16.469l0.724,4.103c-0.8-5.661-0.573-18.479-0.15-27.363c-0.122,0.985-0.208,2.76-0.349,1.695   c-0.172-5.218,0.324-9.159,0.705-6.743c-0.6-5.097,0.504-19.421-0.275-26.369l-3.675-31.939c0.093,1.196,0.167,2.476,0.198,3.795   c-0.635,2.903-0.557,4.468-1.156-0.62c0.336,4.995,0.846,3.086,0.873,10.591c-0.32-2.943-1.049-3.687-1.123,3.501   c0.634,17.972,2.438,29.882,3.361,46.667c-0.49,0.62-0.353,13.798-0.467,20.203c-0.525-2.444-0.676-7.198-0.781-12.131   c-0.018,3.096-0.049,8.425-0.07,12.379L266.801,276.93z" fill="#202020"/><path d="M265.158,235.199c-0.045,0.449-0.068,0.914-0.092,1.391C265.108,236.336,265.139,235.921,265.158,235.199z" fill="#202020"/><path d="M265.858,261.437c-0.02-0.062-0.033-0.04-0.054-0.062c0.013,0.518,0.024,1.035,0.038,1.564   C265.847,262.411,265.854,261.812,265.858,261.437z" fill="#202020"/><path d="M262.852,188.869c-0.116-1.068-0.202-1.853-0.318-2.922c0.036,0.658,0.083,1.481,0.127,2.274   C262.727,188.978,262.793,189.338,262.852,188.869z" fill="#202020"/><path d="M263.713,185.275l0.201,0.57c0.016-0.459,0.027-0.781,0.043-1.187   C263.848,184.534,263.758,184.668,263.713,185.275z" fill="#202020"/><path d="M262.379,344.99l0.105,1.707C262.477,345.669,262.434,345.225,262.379,344.99z" fill="#202020"/><path d="M265.971,296.77c-0.047-6.194-0.73-0.74-0.733-9.503l-0.044,2.571c-0.313-6.287-0.17-17.336-0.195-24.807   c0.291,0.843,0.354-4.53,0.806-3.656c-0.106-5.106-0.206-10.164-0.673-12.794c0.152-3.164-0.258-7.97-0.064-11.992   c-0.273,1.698-0.924-5.726-0.59,4.063c-0.037-0.791-0.1-0.294-0.139-1.075c-0.381,6.305,0.266,8.834,0.274,14.266   c-0.269,3.248-0.435-5.311-0.543-2.247c0.251,6.783-0.325,21.284,0.69,20.835c0.07,4.936-0.152,5.617-0.338,7.089   c1.08,7.809-0.465,28.978,0.918,28.906c-0.055-2.851-0.025-7.495-0.322-11.678L265.971,296.77z" fill="#202020"/><path d="M262.924,199.271c-0.005,0.381-0.011,0.889-0.014,1.206C262.914,200.12,262.919,199.677,262.924,199.271z" fill="#202020"/><path d="M266.928,121.107l0.902,2.591c0.217,14.749-0.037,20.082-0.002,32.978   c-0.123,0.985-0.201-0.579-0.242-1.373c0.105,9.066-0.084,22.632,0.33,29.231c-0.006,2.885-0.293,10.458-0.559,7.592   c0.079,1.403,0.156,3.009,0.127,4.623c-0.324,0.427-0.092-3.613-0.357-3.706c-0.022,1.28-0.086,1.779,0.018,2.073   c-0.279-2.153-1.102,2.234-1.082-7.808c0.76-3.889,0.088,6.965,0.926,4.669c0.006-3.331-0.318-2.943-0.421-3.229   c0.019-4.245,0.229-4.134,0.421-3.907c-0.26-1.627,0.102-6.966-0.293-9.212c-0.064-8.255,0.629,0.449,0.619-4.942l-0.848-3.108   l0.16-8.964c-0.299-12.977-1.465,1.856-1.945-12.977c0.443,1.949,1.186-4,1.363-10.904c0.031,4.13,0.584,11.765,0.332,17.098   c0.664-7.517,0.08,10.346,0.84,6.445c-0.359-3.715-0.408-9.909-0.215-14.74l0.078,1.583c0.09-5.138-0.797-9.026-0.457-16.116   c-0.027-3.523,0.211-2.863,0.41-2.243C266.906,123.781,266.74,121.116,266.928,121.107z M267.105,128.782l-0.084,4.713   C267.16,132.377,267.156,130.62,267.105,128.782z" fill="#202020"/><path d="M179.884,381.778c0.315,0.347,0.678,0.747,0.963,1.062C180.654,382.591,180.283,382.194,179.884,381.778z" fill="#202020"/><path d="M255.199,146.887l-0.028,2.73C255.2,148.552,255.204,147.677,255.199,146.887z" fill="#202020"/><path d="M257.998,208.155l0.198,3.988C258.184,210.569,258.106,209.336,257.998,208.155z" fill="#202020"/><path d="M185.706,384.5l0.09,0.099c0.169,0.146,0.298,0.258,0.477,0.413L185.706,384.5z" fill="#202020"/><path d="M256.015,331.037c-0.071,0.607-0.136,1.289-0.187,2.222C255.913,333.147,255.973,332.317,256.015,331.037z" fill="#202020"/><path d="M257.961,207.421c-0.006,0.103-0.01,0.161-0.016,0.242c0.018,0.155,0.035,0.326,0.053,0.493   L257.961,207.421z" fill="#202020"/><path d="M257.671,119.899c-0.028-0.586-0.054-1.118-0.085-1.748C257.604,118.976,257.635,119.481,257.671,119.899z" fill="#202020"/><path d="M255.268,123.747c-0.021-0.629-0.048-1.23-0.084-1.698L255.268,123.747z" fill="#202020"/><path d="M255.085,66.331l0.122,3.675C255.193,68.199,255.146,67.121,255.085,66.331z" fill="#202020"/><path d="M255.823,114.021c-0.039-0.214-0.077-0.428-0.115-0.57C255.734,113.959,255.784,114.201,255.823,114.021z" fill="#202020"/><path d="M194.611,400.079c-0.06-0.059-0.125-0.121-0.16-0.156l-0.135,0.004L194.611,400.079z" fill="#202020"/><path d="M201.802,405.525c0.761,0.729,1.554,1.487,2.333,2.232C203.291,406.907,202.446,406.099,201.802,405.525z" fill="#202020"/><path d="M254.652,384.422c-0.123,0.974-0.27,3.257-0.409,2.191C254.42,388.475,254.849,388.351,254.652,384.422z" fill="#202020"/><path d="M178.192,391.161c0.495,0.334,1.072,0.786,1.65,1.242C178.792,391.529,177.877,390.758,178.192,391.161z" fill="#202020"/><path d="M179.842,392.403c0.521,0.43,1.078,0.889,1.544,1.273C180.852,393.22,180.331,392.791,179.842,392.403z" fill="#202020"/><path d="M247.618,359.668c0.058-0.241,0.105-0.616,0.121-1.125C247.624,358.692,247.599,359.097,247.618,359.668z" fill="#202020"/><path d="M205.884,409.699c0.552,0.267,10.79,9.884,2.514,1.461c0.767-0.123,5.563,5.151,7.899,7.268   c-1.513-1.722,1.089,0.519,0.758-0.132c-1.158-1.05-2.599-2.234-4.392-4.092c-0.636-1.042,2.271,1.59,4.358,3.828   c-2.43-2.899,3.733,3.028,0.142-0.923c-8.217-7.904-14.076-13.438-20.394-18.457c4.702,4.487,9.975,9.495,13.564,13.442   l-1.969-1.199c-3.921-4.598-6.803-6.975-10.956-11.2l9.206,9.615c4.088,4.729,1.065,1.853-2.479-1.553   C204.985,408.617,205.735,409.414,205.884,409.699z" fill="#202020"/><path d="M196.168,406.733l0.146,0.169c0.152,0.124,0.332,0.286,0.436,0.357L196.168,406.733z" fill="#202020"/><path d="M266.094,65.653l0.205,1.144C266.207,65.842,266.143,65.547,266.094,65.653z" fill="#202020"/><path d="M192.418,399.257l0.007,0.007C192.357,399.204,192.342,399.188,192.418,399.257z" fill="#202020"/><path d="M245.865,58.47c-0.014-0.041-0.03-0.081-0.047-0.152C245.835,58.421,245.851,58.421,245.865,58.47z" fill="#202020"/><path d="M257.594,66.074c0.025-0.052,0.049-0.068,0.074-0.192C257.638,65.275,257.613,65.569,257.594,66.074z" fill="#202020"/><path d="M245.916,58.492c-0.017,0-0.033,0.019-0.051-0.021C245.883,58.492,245.9,58.542,245.916,58.492z" fill="#202020"/><path d="M247.913,196.799c0,0,0.094-0.437,0.184-1.125C248.046,195.407,247.987,195.674,247.913,196.799z" fill="#202020"/><path d="M248.718,169.498c0.021-0.174,0.033-0.276,0.06-0.499L248.718,169.498z" fill="#202020"/><path d="M257.102,377.965c0.008-1.351-0.006-2.364-0.029-3.22C257.059,375.73,257.061,376.797,257.102,377.965z" fill="#202020"/><path d="M245.818,58.319c-0.058-0.285-0.117-0.691-0.19-1.36C245.706,57.696,245.766,58.086,245.818,58.319z" fill="#202020"/><path d="M250.661,238.425c-0.021-0.291-0.04-0.564-0.06-0.839c-0.009,0.167-0.019,0.334-0.027,0.499   L250.661,238.425z" fill="#202020"/><path d="M250.26,252.672c-0.062-0.486-0.126-0.709-0.182-0.982c0.226,5.084-0.02,14.427,0.559,15.533   c-0.014-1.726,0.326-10.671,0.665-9.146c-0.145-3.545,0.261-8.785,0.166-10.693c-0.316,5.819-0.488,0.629-0.684-3.3   c0.169-3.573,0.466,0.672,0.573-2.405l-0.064-8.267l-0.076,7.201l-0.557-2.188c0.019,0.267,0.032,0.449,0.053,0.734   C250.973,251.343,249.899,240.194,250.26,252.672z" fill="#202020"/><path d="M250.079,251.69c-0.035-0.762-0.078-1.432-0.137-1.952C249.951,250.887,250.008,251.333,250.079,251.69z" fill="#202020"/><path d="M249.161,301.465c0.026,0.626,0.053,1.304,0.088,2.156C249.233,303.216,249.194,302.274,249.161,301.465z" fill="#202020"/><path d="M262.059,158.99c0.164-0.213,0.502-7.313,0.073-7.186c-0.045,2.107-0.089,4.229-0.134,6.361L262.059,158.99   z" fill="#202020"/><path d="M251.648,438.054c0.003-0.849,0.007-1.699,0.011-2.551c-0.024-0.213-0.048-0.419-0.066-0.578   C251.53,435.365,251.608,437.134,251.648,438.054z" fill="#202020"/><path d="M251.504,260.269c-0.065-1.301-0.133-1.881-0.201-2.193C251.337,258.919,251.392,259.696,251.504,260.269z" fill="#202020"/><path d="M250.631,436.914c-0.122,0.777-0.309,1.809-0.472,1.674c-0.003,1.34,0.116,2.648,0.212,4.126   c-0.287-0.237-0.598-0.503-0.953-0.827c0.326,0.314,0.663,0.64,1.017,0.98C250.422,440.991,250.481,439.076,250.631,436.914z" fill="#202020"/><path d="M249.312,441.792c0.037,0.032,0.073,0.065,0.106,0.095L249.312,441.792z" fill="#202020"/><path d="M261.877,163.214c0.028,0.61,0.059,1.239,0.09,1.887l-0.115-0.982c-0.043,1.633-0.086,3.256-0.129,4.883   c0.02,0.589,0.041,1.227,0.068,2.011c-0.016-0.316-0.061-0.561-0.107-0.712c-0.018,0.53-0.034,1.047-0.051,1.564   c0.443,3.889,0.768,13.565,1.027,16.357c0.189,3.693,0.297,8.214,0.264,11.049c0.008-2.627-0.08-6.116-0.326-5.069   c-0.254,5.336-0.989,7.929-0.357,17.138l-0.01-5.401l0.95,12.144c-0.394,4.254-0.474-6.061-0.817-7.747   c0.469,9.444-0.783,17.299,0.041,21.678c-0.488,0.616-1.303,1.651-1.255,7.848c0.558-4.468,0.358,3.715,0.954,0.05   c0.279,2.141-0.176,6.913,0.189,7.269l-0.203-0.579c-0.772,10.582,0.439,14.045,0.838,18.573   c0.199,12.67-0.117,18.489-0.035,28.822c-0.327,0.406-1.227,3.22-1.193,7.365c0.443,1.928,0.648,11.279,1.215,12.233   c0.236-7.412-0.475-6.064-0.607-10.501c0.594-3.693,0.588-0.335,0.943-5.379c-0.232,4.071,0.309,18.396-0.248,22.854l-0.078-1.574   c-0.34,7.117-1.742,8.478-0.893,20.336l0.348,5.658c-0.057-0.272-0.123-0.304-0.174-0.449c-0.06,9.262-0.705,6.732-0.195,16.958   c-0.039-0.79-0.102-0.294-0.141-1.097c-0.318,5.828,0.322,11.706,0.455,16.112c-0.473,2.689-0.465-0.639-0.807-2.302   c-0.184,10.253,0.628,21.317,1.205,27.686l-0.277,6.608c-0.195-3.919-0.694-8.71-0.98-7.514c0.096,3.635,0.318,2.932,0.229,8.071   c-0.303-0.876-0.585-3.033-0.965-5.45c-0.506,10.632,1.072,2.377,0.145,9.816c-0.007,3.341,0.436,5.28,0.801,5.646l-0.479,6.035   c0.465,0.676,0.492,7.454,0.563,11.787c0.1,0.1,0.224-0.996,0.3-2.227c0.077-1.237,0.106-2.622,0.017-3.342   c0.182-0.011,0.316,1.027,0.404,2.35c0.088,1.328,0.129,2.963,0.125,4.317c-0.203,0.62-0.316,1.782-0.377,3.275   c1.661-1.498,4.489-4.425,6.543-6.457c2.049-2.026,3.531-3.367,2.683-1.876c2.54-2.629,5.336-5.524,8.207-8.497   c2.967-3.047,6.01-6.174,8.942-9.187c5.863-6.025,11.266-11.607,14.633-15.263c2.507-2.125,7.236-6.835,4.731-3.683   c8.567-8.562,12.276-13.687,20.966-21.999c0.79-0.617-3.837,3.85-3.305,3.777c1.32-1.459,2.631-2.801,3.985-4.133   c0.34-0.331,0.682-0.663,1.024-0.998c0.346-0.351,0.858-0.777,1.365-1.058c1.039-0.596,2.276-0.879,3.516-0.769   c2.479,0.168,4.986,2.145,5.427,5.039c0.229,1.414-0.06,2.999-0.97,4.32c-0.22,0.326-0.512,0.66-0.765,0.911   c-0.244,0.249-0.492,0.502-0.744,0.759c-0.5,0.517-1.015,1.049-1.544,1.597c1.438-1.463,1.719-2.028,1.849-2.302   c0.265-0.037-3.295,3.769-5.415,6.11c-1.313,1.193,1.587-1.753,0.796-1.137c-16.988,16.319-28.739,29.945-45.334,46.478   c4.739-4.721,6.07-6.966,5.934-7.203l-4.642,4.626c-1.558,2.014-5.038,5.492-7.777,8.572c-0.442,0.271-1.95,1.595-0.614,0.043   c-4.808,4.346-8.174,8.129-11.771,12.198c-1.798,2.034-3.653,4.141-5.774,6.425c-1.062,1.142-2.188,2.328-3.409,3.572l-0.229,0.233   l-0.059,0.059l-0.007,0.008l-0.282,0.23l-0.032,0.021l-0.049,0.032l-0.158,0.1l-0.621,0.379l-0.354,0.195l-0.207,0.105   l-0.137,0.062l-0.068,0.03l-0.218,0.079c-0.227,0.067-0.454,0.137-0.684,0.205c-1.372,0.348-2.649,0.247-3.818-0.198   c0,0,0.059,0.014,0.17,0.039c0.145,0.027,0.323,0.103,0.826,0.177c0.097,0.01,0.359,0.039,0.572,0.048   c0.218,0.008,0.427,0.009,0.707-0.009c0.128-0.013,0.521-0.047,0.753-0.098c0.134-0.022,0.268-0.058,0.405-0.089   c0.234-0.057,0.336-0.102,0.455-0.143c0.11-0.042,0.224-0.085,0.338-0.128l0.161-0.063l0.034-0.014l0.159-0.058l0.033-0.016   l0.133-0.066c0.163-0.086,0.286-0.163,0.403-0.236c0.12-0.079,0.243-0.16,0.367-0.242l0.335-0.235l0.175-0.125l0.111-0.079   c0.427-0.351,0.121-0.1,0.218-0.18l0.004-0.005l0.008-0.009l0.017-0.02l0.034-0.038c0.178-0.205,0.36-0.414,0.546-0.626   c0.742-0.85,1.533-1.757,2.325-2.663c3.165-3.627,6.331-7.253,6.331-7.253l-3.682,3.04l5.554-6.392   c-3.82,3.314-6.338,7.001-7.114,7.084c0.656-0.852,2.504-2.637,2.373-2.881c-3.56,3.289-3.57,3.816-6.078,6.458   c6.079-7.487,19.39-20.775,26.375-28.106c1.07-1.182-0.795,1.134-0.922,1.405c2.896-2.944,4.869-4.478,8.424-8.276   c1.985-2.581-1.961,1.523-3.804,3.304c-0.01-0.509,0.918-1.404,2.896-3.461c0.783-0.094,11.2-10.956,14.222-13.135   c10.674-10.892-2.618,0.83,8.058-9.546l3.539-2.749c2.902-3.208,6.262-6.855,9.771-10.555c1.755-1.85,3.546-3.712,5.337-5.539   c0.847-0.862,1.689-1.72,2.522-2.567c0.35-0.414,0.564-1.009,0.547-1.582c0,0,0.019,0.243-0.02,0.485   c-0.03,0.242-0.116,0.469-0.116,0.469c-0.016,0.343,0.106,0.308,0.289,0.077c0.181-0.226,0.326-0.671,0.374-0.963   c0.024-0.534-0.119-1.068-0.395-1.51c-0.146-0.234-0.281-0.397-0.525-0.624c-0.141-0.127-0.391-0.303-0.603-0.405   c-0.904-0.453-1.987-0.335-2.72,0.135c-0.188,0.114-0.357,0.248-0.51,0.4c-0.245,0.252-0.487,0.5-0.725,0.743   c-0.521,0.522-1.024,1.025-1.508,1.509c-0.98,0.954-1.912,1.797-2.803,2.489c-5.539,6.38-15.165,16.627-21.762,23.657   c-2.359,1.317,8.446-9.33,10.957-12.491l-6.201,6.205c3.827-3.841,5.144-5.554,7.146-8.147c-5.532,5.339-6.865,7.582-11.886,12.867   c0.259-0.542-0.516,0.059-2.897,2.432l-0.329,1.021c-0.072,0.016-0.361,0.253-1.117,0.965l-8.958,9.38   c2.094-1.797,2.488-1.591,4.861-3.955c-1.048,0.645,0.922-1.405,3.298-3.771c-1.852,2.304,2.502-2.12,2.638-1.884   c-4.761,4.743-10.554,10.629-13.574,13.839l-1.331,0.694c-2.305,2.224-4.608,4.576-6.731,6.744   c-1.064,1.082-2.083,2.117-3.026,3.076c-0.478,0.475-0.936,0.93-1.37,1.361c-0.52,0.504-1.013,0.98-1.473,1.427   c0,0,0.294-0.379,0.589-0.758c0.264-0.349,0.417-0.587,0.432-0.601c-6.472,6.292-13.483,13.635-19.238,18.966   c0.031-0.847,0.063-1.676,0.094-2.498c-0.257-3.971-0.492-8.908-0.731-13.956c-0.239-4.862-0.48-10.894-0.749-12.999   c-0.582-2.996,0.729-20.113-0.09-27.841c0.063-0.521,0.438,5.308,0.658,7.944c0.09-5.14-0.633-9.227-0.021-10.838   c-0.205,11.535,0.488-0.62,0.662,4.576c-0.012-5.4-0.121-11.096-0.34-13.745c0.004,8.741-0.846-3.104-0.58,5.745   c-0.514-6.857-0.719-16.215-0.52-24.386c0.264,0.08,0.387-0.927,0.496-3.973l-0.383-2.457c0.068-3.823,0.453,7.394,0.589-0.304   c-0.655-7.92,0.372-23.85-0.839-27.316c0.478-6.036,0.485,11.486,1.071,2.389c0.438,5.292-0.064,12.593,0.541,14.337   c-0.173-5.187,0.511-1.894,0.517-5.239l-0.373-5.785l-0.022,1.279c-0.571-9.708-0.297-25.089-0.395-37.486   c-0.609-10.501-1.489-17.729-1.422-30.325c0.357,3.719,0.344-10.461,0.999-2.531c0.315-5.829-0.059-11.583-0.322-11.697   c-0.09,5.128-0.084,1.803-0.215,6.123c-0.32-2.916-0.305-9.637-0.096-12.397c-0.023,1.279,0.037,0.793,0.139,1.075   c0.215-6.123-0.318-2.935-0.453-7.359c0.449-1.403,0.121-9.77,0.351-13.81l-0.638-5.859c0.419,3.219,0.153-5.615,0.541-6.538   c-0.296-4.202-0.817-7.725-0.704-14.123c0.219,2.643,0.316-5.837,0.743-5.949c0.408-10.957-1.163-18.145-0.552-28.522   c0.1,0.322,0.38,2.417,0.487-0.617c-0.119-2.389-0.069-6.572-0.115-9.128l0.013,0.081c-0.005-0.049-0.008-0.081-0.013-0.133   c-0.022-1.251-0.076-2.039-0.179-2.07c-0.417-4.375-0.844-6.631-1.197-15.242c-0.488,0.632-0.299,7.901-0.142,11.049l0.481,2.721   c-0.736,2.6,0.128,7.765-0.12,9.745c-0.863-5.166-0.651-20.042-1.182-28.965c-0.68,5.441-0.786,17.277-0.704,27.605l0.292-4.549   l0.009,5.404l0.519-5.23c-0.091,5.119,0.042,9.544,0.013,14.17c-0.01-5.417,0.663-7.526,0.557-4.462   c-0.479,6.036,0.313,6.29,0.283,10.904c0.044-2.569,0.053-5.909,0.332-3.755c-0.586,9.097-0.204,11.554-0.83,19.828   c0.813-1.026,0.081,10.336,0.748,11.576l0.068-3.839l0.492,8.143c-0.663,7.514-0.675-6.652-1.144,4.781   c-0.082,10.55,0.772,10.278,0.836,18.573c-0.482-2.733-0.896-9.312-0.882-16.004l-0.232,4.053   c-0.279-2.145-0.221-11.403-0.192-16.023c0.553,7.635,0.17-3.572,0.603-7.046c-0.467-0.638-0.394,4.264-0.768-1.524   c0.009,5.422,0.048,6.216-0.128,13.113c0.212-14.91-1.618-13.407-1.227-26.421c0.211,5.999,0.673-2.092,0.899-2.813   c-0.056-2.823-0.167-8.549-0.284-10.904l-0.674,2.132c-0.291-7.583,1.136-10.216,0.441-18.966   c-0.403-1.137-0.137,7.697-0.215,6.123c-0.423-11.973,0.662-16.286,1.169-26.917c-0.202-0.601-0.629-0.477-0.985-4.195   c0.404,1.168,0.611-1.583,0.907,2.6c0.171-3.554-0.126-7.765-0.283-10.901c-0.237,7.399-0.581-3.027-0.823-4.391   c0.068-3.833,0.403,1.168,0.521,3.526c0.108-3.077,0.704-6.733,0.099-8.481c0.426-0.121,1.12,8.602,1.23,14.306l0.068-3.845   c0.218,2.649,0.156,3.145,0.09,6.962c0.33-3.737,0.694-3.368,0.998-2.498c-0.062,0.49-0.101-0.272-0.162,0.195   c-0.108,3.074,0.008,5.432,0.234,4.719c0.572,2.764,0.357-4.264,0.643-6.346c-0.039-1.574-0.077-3.148-0.115-4.691l-1.836-15.97   c-0.214-6.823,0.226-9.891,0.503-15.016l-0.491-1.407c0.051-5.937,0.206-11.539,0.828-7.734c-0.164,0.214-0.125,0.998-0.148,2.287   c0.066,0.171,0.114,0.468,0.152,0.843c0.029,0.124,0.058,0.192,0.086,0.294c-0.167-6.358-0.271-10.327-0.28-10.693   c0.713,10.795,0.892,0.539,1.763,2.346l-0.285-10.904c-0.275,6.609-0.426,0.121-0.543-2.225c0.123-0.162,0.184-0.792,0.208-1.705   c0.003-0.457,0.007-0.984,0.011-1.56c-0.004-0.288-0.007-0.587-0.011-0.896c-0.002-0.155-0.005-0.311-0.008-0.47l-0.004-0.239   l-0.001-0.015V55.7v-0.004c0-0.026,0.003,0.209,0.001,0.108l-0.001-0.03l-0.003-0.061l-0.006-0.121   c-0.008,0.057-0.017-0.002-0.034-0.032c-0.017-0.032-0.035-0.061-0.057-0.088c-0.043-0.055-0.103-0.102-0.162-0.134   c-0.125-0.068-0.206-0.067-0.3-0.088l0.036-0.099l-0.041-0.017l-0.005-0.002l-0.003-0.001l-0.001,0l-0.001,0h0   c-0.1,0.001,0.137-0.002,0.111-0.002l-0.088-0.001l-0.165-0.002c0.125-0.009,0.035-0.016,0.016-0.018   c-0.06,0.002-0.126,0.007-0.193,0.039c-0.135,0.057-0.268,0.2-0.307,0.351c-0.011,0.038-0.017,0.078-0.02,0.12l0.002,0.474   c0.008,0.642,0.017,1.281,0.025,1.911c0.029,1.258,0.056,2.474,0.082,3.578c0.164-0.202,0.965,5.462,1.447,8.183   c0.184-7.576,0.381-3.08,0.684-3.688c-0.027,0.784-0.033,2.194,0.029,2.358c0.14,1.084,0.186-1.472,0.348-1.686   c-0.051-2.014-0.103-4.042-0.152-6.002c-0.026-0.98-0.052-1.943-0.076-2.88c-0.015-0.468-0.028-0.93-0.042-1.383   c-0.008-0.227-0.016-0.452-0.022-0.674c-0.56-0.04-1.113-0.079-1.662-0.117c-0.102-0.017-0.027-0.006-0.008,0.015   c0.027,0.021,0.008,0.011-0.008-0.019c-0.018-0.028-0.016-0.048-0.008,0.003l0.003,0.023c-0.012,0.01-0.059,0.027-0.086,0.036   c-0.177,0.009,0.367,0.062,0.091,0.046c0-0.053,0.004-0.083,0.007-0.104c-0.078-0.086,0.09,0.088-0.043-0.01   c0.019,0,0.087,0.062,0.047,0.021c-0.013-0.016-0.029-0.056-0.024-0.043l0.005,0.026c0.004,0.014,0.025,0.033-0.085,0.065   c-0.095,0.009,0.074,0.026,0.131,0.04l0.061,0.011l0.03,0.005c-0.257-0.003-0.071-0.001-0.129-0.002v0v-0.001v-0.002v-0.023   l0.005-0.075c0.042-0.121-0.063,0.081-0.014,0.005c0.021-0.02,0.083-0.032,0.014-0.018c-0.016-0.011-0.013,0.035-0.04-0.036   l-0.023-0.074c-0.006-0.023-0.017,0.08-0.025,0.114l-0.013,0.075l-0.006,0.038l-0.003,0.019c-1.232-0.257-0.341-0.068-0.616-0.125   l0,0.005v0.009l0,0.151l-0.001,0.304c-0.001,0.406-0.002,0.818-0.003,1.236l-0.411,2.193l0.222,6.733   c-0.217-2.811-0.646-1.119-0.728-8.183c-0.387,0.901,0.088,7.006-0.042,11.331l0.544,2.212c-0.303-0.852-0.362,8.406-0.776,1.828   l-0.445-10.702l-0.372,2.975l-0.104-9.048l0.282,2.135c-0.019-0.909-0.035-1.72-0.05-2.447c-0.002-0.182-0.004-0.358-0.006-0.53   l-0.001-0.127l-0.001-0.063v-0.016c5.015,0.256,1.391,0.066,2.51,0.122l0.001-0.008l0.005-0.031   c0.014-0.061,0.031-0.217,0.042-0.196c0.009,0.037,0.027,0.088,0.041,0.108l0.025-0.003l0.023-0.004   c0.015-0.009-0.07,0.038-0.056,0.035c0.009-0.005,0.041-0.063,0.036-0.06c-0.002,0.01-0.004,0.021-0.006,0.035   c-0.002,0.029-0.004,0.061-0.006,0.099v0.009v0.002v0.001c-0.028,0,0.244,0.003,0.127,0.002l-0.003,0l-0.023-0.004l-0.098-0.018   c-0.061-0.012-0.175-0.025-0.094-0.034c0.1-0.029,0.094-0.049,0.084-0.064c-0.015-0.065,0,0,0.026,0.026   c0.011,0.013-0.001-0.003-0.032-0.02c-0.013-0.008-0.028-0.012-0.021-0.01l0.042,0.007l0.044,0.004   c0.679,0.008,1.367,0.017,2.065,0.025c0.659,4.58,0.73,9.503,0.569,18.47c-0.146-6.488-0.465-0.666-0.846-3.108   c-0.275,6.619,0.268,8.853,0.525,12.286c-0.349,1.686-0.633,2.884-0.582-3.027c-0.73-0.741,0.125,7.777-0.625,8.316   c0.021,19.586,2.426,15.694,1.486,38.589l-0.303-0.858c0.377,14.539,0.016,22.926,0.254,36.389l-0.77,10.6   c-0.119-2.37-0.694-8.744-1.066-5.77c0.779-5.156,0.508-10.628,0.926-16.184c-0.203-0.567-0.35,1.695-0.475,2.68   c0.008-3.353,0.357-5.035,0.222-9.463c-0.161,0.214-0.354,5.044-0.448,1.404l0.479-6.023c-0.229-8.06-1.147-3.969-0.928-13.436   c0.428,1.76,1.047,5.354,1.15,9.02c0.092-4.326,0.258,5.766,0.514,1.819c-0.633-6.231-0.131-9.24-0.528-17.525   c0.089,0.973,0.212,1.23,0.251,3.269l0.268-12.022c-0.37,2.975-0.406-9.931-0.957-8.813c-0.229,12.813,0.104,9.048-0.209,23.648   c-0.125-4.134-0.685-9.463-1.201-11.96c0.021-0.127,0.039-0.338,0.049-0.787c-0.545-2.231-0.691,0.043-1.645,0   c0.678,6.665,0.12,11.121,0.51,18.981c0.522,1.478,0.666-4.561,0.531-8.468l0.346,6.925l-0.24-1.363l-0.175,17.578   c-0.028-3.331-0.331-4.462-0.559-6.2c-0.021,2.268-0.158,4.515-0.31,6.903c0.498-0.502,0.85-0.186,0.84,2.027   c-0.119,11.31-0.566,17.597-1.135,21.77c0.012,0.434,0.024,0.923,0.035,1.317c0.51-1.896,0.917,8.032,1.439,11.536   c-0.527-0.173-0.316,5.828-0.586,9.088c0.605,1.735,1.441-0.579,1.937-4.548c-0.554-7.647-0.559-4.286-1.345-7.898l-0.524-12.267   l0.483,2.742c0.213-6.123-0.425-12.004,0.204-11.555c0.419,3.235,0.165,8.577,0.585,11.787l0.23-4.05   c0.618,7.145-0.595,3.663-0.164,12.313c0.535-3.182,0.038,0.784,0.396,4.49c0.373-2.975-0.152-15.232,0.756-12.633   c0.396,4.499-1.064,15.137-0.161,21.089l-0.103-0.291c-0.117,8.781,0.4,11.867,0.727,15.155c-0.293,3.737,0.121,8.896,0.153,12.946   l-0.265-0.099l0.111,5.713c-0.482-2.72,0.012-6.696-0.058-11.604l-0.491,0.611c0.583-5.658-0.303-9.432-0.725-13.82   c0.424,6.386-0.121,18.034,0.838,19.533l-0.494,3.951l0.178,1.89c-0.371,2.944-0.955-0.062-1.066-5.77   c0.124-0.992,0.186-1.487,0.288-1.187c-0.219-2.649-0.6-5.082-0.487-11.493l0.26,3.421c0.035-7.982-0.154-15.239-0.637-17.972   c-0.205,11.523-0.248,22.855-0.226,33.675c1.109,3.192,1.731,6.978,2.762,8.605c0.189,7.26,0.332,17.116-0.045,23.421l-0.203-0.579   c-0.105,3.077-0.051,5.912,0.066,8.276c-0.27,3.25-0.545-2.225-0.691,0.04l0.346,10.399c-0.467-0.642-0.469-9.393-0.502-13.547   c0.04,0.783,0.117,2.367,0.18,1.858c0.192-4.833-0.602-13.838,0.072-15.951c-0.117-2.355,0.498,4.784,0.533-3.188   c0.255-5.338-0.352-7.077-0.553-7.635c-0.266-0.086-0.363,8.378-0.682,5.441c0.033,4.155,0.375,5.81,0.119,11.124   c-0.031-4.118-0.568-9.711-0.157-11.905c-0.493-8.143-1.733-6.975-1.801-3.136c0.389-0.914,0.479,14.854,0.985,4.177   c0.5,4.796,0.504,13.559,0.816,19.833l-0.1-0.285l0.125,7.79c-0.138-1.097-0.256-3.452-0.519-3.529l0.708,10.789   c-0.476-6.073-0.331,3.765-0.541,6.528c0.404,1.156,0.701,5.37,0.931,1.326c0.294-4.545-0.219-2.646-0.25-6.779l0.639,5.854   l-0.063,0.502l0.521,3.522c-0.037,7.973-1.213-3.482-0.702,6.733l0.711-1.329c-0.104,11.827-0.905,27.016-0.577,35.373   c-0.404-2.306-1.054-3.322-1.44-0.152c0.123-3.604,0.097-10.845,0.03-16.013c0.125-0.995,0.841,6.457,0.687,12.071   c1.164-2.72-0.703-14.123,0.477-14.783c0.412-14.306-1.136-10.671-0.443-22.814c-0.527-0.167-0.258-3.451-0.722-4.09   c-0.86,3.595,0.029,16.233-0.271,24.113c-0.038-0.771-0.117-2.324-0.217-2.628c-0.154,5.633-0.037,7.96,0.158,11.896l0.063-0.496   c0.515,6.876-0.394,4.255-0.625,8.301c0.078,1.568-0.074,7.195,0.313,6.29l-0.5,7.328l0.588-0.353   c0.034,4.133-0.354,5.038,0.004,8.784l0.526,0.174l0.183-10.266c0.172,5.202,0.505,1.45,0.614,7.167   c-0.576-6.387-0.291,4.518-0.78,5.146l0.296,4.204l-0.14-1.075c-0.271,3.301,0.196,3.93,0.127,7.781   c0.294-4.543,0.663-7.518,0.29-13.306c0.295,4.214,0.623,12.571,0.641,14.622c0.221,4.425-0.18,7.514-0.24,11.653   c-0.211-7.944-1.596,2.783-1.218-13.138c0.101,0.295,0.078,1.584,0.016,2.083c0.672-2.123-0.042-9.544-0.299-12.996   c-0.388,0.89-0.484-2.72-0.698,3.399c0.248-2.008,0.864,5.156,0.546,10.979l-0.829-1.026l-0.098,8.478l-0.039-0.793   c-0.534,3.188,0.103,9.045-0.211,14.883c0.296,4.214,0.061,20.382,0.928,13.426c-0.519,5.239,0.142,9.838,0.253,15.555l0.338-7.127   c0.593,8.425,0.21,5.999,1.153,12.741c-0.227,0.682-0.412,2.185-0.651,0.815c-0.019,5.015-0.039,10.665-0.06,16.387   c0.004,6.267,0.008,12.611,0.011,18.416c-5.646-5.578-10.548-10.304-13.795-13.16c-2.386-2.399-4.254-4.362-5.882-6.118   c-0.802-0.875-1.56-1.702-2.309-2.52l-1.042-1.153c-0.216-0.251-0.433-0.505-0.654-0.763c-1.774-2.058-3.869-4.363-7.963-8.186   c-1.75-1.585,0.751,1.848-4.321-3.563c-0.309-0.396,5.48,4.612-0.403-1.179c-4.607-3.705-9.514-10.013-15.312-15.028   c-2.692-3.018-7.708-7.91-6.319-7.235c4.441,4.604,10.915,10.93,12.062,11.733c-0.84-0.409,3.008,3.425-0.49,0.258   c6.566,7.105,4.658,4.216,10.606,10.533c0.565,0.279-2.758-3.548-4.2-4.735c0.458-0.516,12.328,11.856,7.461,5.821   c-6.511-6.596-9.473-7.525-14.639-13.717c2.573,1.979,5.882,5.791,9.286,8.171l-4.471-4.862l-3.739-3.035l0.273,0.13   c-7.796-8.689-8.127-7.123-15.746-14.254c3.934,4.611-1.833-0.143,1.173,3.279c-4.994-4.87-8.551-8.557-8.096-9.077   c9.624,8.828,1.04,0.008,10.055,8.051c-1.225-1.574,2.745,1.318-2.285-3.819c-6.075-5.379,1.307,2.12-4.565-3.432   c-0.294-0.381-0.601-0.775-0.33-0.647c-2.88-2.373-2.974-3.156-6.433-6.056l0.852,0.656c-1.812-2.107-2.968-3.096-4.052-4.02   c-0.542-0.461-1.066-0.906-1.646-1.468c-0.29-0.28-0.593-0.59-0.92-0.944c-0.081-0.09-0.164-0.182-0.249-0.275l-0.128-0.145   l-0.016-0.018l-0.002-0.003c0.122,0.119,0.033,0.032,0.059,0.058l-0.004-0.004l-0.008-0.01l-0.034-0.036l-0.067-0.073l-0.059-0.064   l0.004-0.003c0.001-0.004,0.018-0.002-0.006-0.025l-0.091-0.116c0.089,0.397-0.181,0.271-0.512,0.238   c-0.347-0.061-0.852,0.107-0.949,0.416c0.404-0.199,0.845,0.18,0.773,0.415c-0.008,0.005-0.092-0.073-0.032-0.008l0.078,0.088   l0.04,0.044l0.02,0.022l0.005,0.005c0.019,0.019-0.156-0.152-0.081-0.078l0.002,0.003l0.01,0.011   c0.103,0.121,0.208,0.243,0.315,0.367c0.216,0.247,0.439,0.503,0.67,0.77c0.473,0.523,0.982,1.088,1.54,1.706   c1.129,1.223,2.483,2.631,4.177,4.311c1.101,0.528,0.767-0.123,3.677,2.51l-4.421-4.352c0.994,0.899,1.788,1.547,2.713,2.357   l4.065,4.361c-5.546-5.137-3.403-2.382-5.97-4.354c-4.763-5.014-4.112-3.955-7.093-7.122c0.046-0.008,0.052-0.053,0.021-0.134   c-0.008-0.021-0.019-0.043-0.029-0.067l-0.009-0.02l-0.005-0.01l-0.001-0.002c-0.022-0.018,0.193,0.148,0.102,0.078l-0.001-0.002   l-0.003-0.004l-0.026-0.038c-0.027-0.042-0.106-0.144-0.109-0.164c0.026,0.016,0.115,0.06,0.116,0.041l0.029-0.041   c0.018-0.027,0.032-0.058,0.039-0.09c0.039-0.132-0.136-0.308-0.371-0.268c-0.014,0.005-0.032,0.007-0.048,0.015l-0.013,0.005   h-0.002h-0.001c0.151-0.155,0.039-0.04,0.072-0.074l-0.019,0.019l-0.038,0.036c-0.035,0.033-0.137,0.131-0.118,0.11   c0.015-0.017,0.028-0.036,0.039-0.058l-0.021,0.012c-0.014,0.009-0.031,0.017-0.044,0.028c-0.058,0.039-0.113,0.094-0.154,0.168   c-0.085,0.146-0.118,0.36-0.066,0.545c0.013,0.048,0.03,0.095,0.053,0.144l0.04,0.073l0.304,0.33   c0.399,0.435,0.792,0.864,1.178,1.283c0.768,0.841,1.501,1.643,2.173,2.378c-0.869-0.88-1.99-2.015-2.595-2.628   c-0.544-0.478-0.914-0.787-1.144-0.961c-0.263-0.206-0.22-0.118-0.255-0.104c-0.051-0.002,0.079,0.172,0.267,0.399   c0.193,0.223,0.449,0.517,0.735,0.847c1.165,1.302,2.877,3.115,2.896,3.248l3.189,2.771c-0.59-0.532-1.463-1.21-0.252,0.12   c4.112,3.956,4.293,3.305,8.399,7.253c0.071,0.534-3.685-2.52-1.302,0.106c0.662,1.064,2.875,4.351,8.429,9.497   c0.468,0.29,1.904,1.628,3.55,3.198c-0.236-0.212-0.525-0.483-0.643-0.567l3.302,3.806c-3.422-2.634-5.938-6.31-9.377-8.957   l-0.634,0.116c-2.37-2.367-5.748-5.421-7.421-6.706c3.547,3.675,4.406,4.336,8.521,8.297c0.329,0.802-2.691-1.866-3.126-2.25   l0.816,0.389c-4.505-5.126-7.559-6.84-13.483-12.904c-0.89-0.92-0.31-0.396-0.038-0.266c-1.304-1.122-2.548-2.293-3.763-3.483   l-1.803-1.798c-0.607-0.608-1.2-1.163-1.537-1.901c-0.718-1.439-0.644-3.216,0.163-4.597c0.792-1.394,2.269-2.391,3.956-2.592   c0,0-0.553,0.08-1.055,0.279c-0.507,0.193-0.94,0.493-0.94,0.493c0.928-0.533,2.379-0.882,3.93-0.377   c0.769,0.234,1.524,0.741,2.167,1.367c0.671,0.599,1.374,1.227,2.102,1.876c2.913,2.599,6.231,5.558,9.548,8.516l0.197-0.096   c-0.609-0.784,1.741,1.576,2.946,2.899l-0.009-0.005c3.316,2.978,6.503,5.839,9.109,8.179c-0.701-0.881-1.637-1.969-2.778-3.151   c-1.155-0.813-6.782-6.719-6.379-5.539c-2.43-2.899-7.059-6.854-8.867-8.959c3.314,3.815-2.85-2.115-3.689-2.524   c-0.238-0.361-0.689-0.871-1.218-1.43c-0.274-0.286-0.527-0.558-0.858-0.878c-0.377-0.357-0.771-0.631-1.188-0.865   c-1.684-0.945-3.329-0.734-2.908-1.008c-0.633-0.014,0.174-0.089,1.393,0.23c0.605,0.164,1.3,0.454,1.933,0.863   c0.307,0.194,0.634,0.443,0.906,0.678c0.27,0.234,0.456,0.397,0.681,0.569c1.01,0.856,1.105,0.841,0.756,0.403   c-0.174-0.219-0.459-0.543-0.797-0.917c-0.32-0.378-0.948-0.975-1.578-1.339c-1.289-0.816-2.795-0.978-3.321-1.017   c-0.268-0.023-0.304-0.057,0.014-0.103c0.314-0.029,1.005-0.103,2.133,0.186c-1.417-0.405-3.006-0.362-4.462,0.194   c-0.728,0.274-1.415,0.684-2.021,1.193c-0.306,0.259-0.58,0.54-0.819,0.823c-0.29,0.344-0.499,0.645-0.708,1.003   c-0.811,1.397-1.116,3.104-0.802,4.719c0.153,0.808,0.455,1.592,0.889,2.297c0.407,0.706,1.092,1.359,1.463,1.713   c3.493,3.409,7.018,6.832,10.221,9.731l-3.281-3.551c2.664,2.761,9.157,9.106,9.478,9.746c-2.054-1.978-4.405-4.337-7.051-6.85   c-0.498,0.248,6.198,6.194,6.255,6.712l8.106,6.871l-3.259-3.301c2.292,1.84,8.877,8.971,13.907,14.106   c-3.426-2.405-7.681-7.655-13.234-12.799c-4.078-3.69,1.907,2.892-1.892-0.662c0.834,1.071,3.247,3.457,4.559,4.512l1.358,1.543   c-3.744-2.815-10.993-10.272-16.287-14.769c0.479,0.38,0.906,0.702,1.096,0.784c-3.589-3.948-7.424-7.769-11.221-11.32   c1.797,2.09,2.666,2.76,3.83,3.816c0.012,0.127-0.862-0.665-1.918-1.637c-0.529-0.484-1.104-1.013-1.634-1.499   c-0.278-0.251-0.543-0.491-0.785-0.71c-0.384-0.363-0.699-0.729-0.944-1.044c0.289,0.433,0.579,0.795,0.855,1.094   c0.172,0.193,0.323,0.361,0.454,0.509c0.239,0.271,0.402,0.469,0.512,0.612c0.221,0.287,0.229,0.359,0.2,0.392   c-0.059,0.063-0.267-0.037,0.776,1.082c-0.584-0.528-1.133-1.04-1.669-1.553l-0.4-0.385l-0.219-0.216   c-0.118-0.122-0.237-0.24-0.349-0.369c-0.452-0.507-0.852-1.072-1.185-1.685c-1.316-2.429-1.631-5.727,0.104-8.826   c0.509-0.759,0.737-0.914,0.71-0.813c-0.017,0.109-0.251,0.504-0.467,1.001c-0.473,0.989-0.697,2.382-0.448,2.08   c0.385-1.633,1.24-2.916,2.231-3.841c1.004-0.933,2.203-1.577,3.543-1.921c1.341-0.333,2.847-0.394,4.494,0.053   c0.821,0.224,1.674,0.591,2.508,1.141c0.214,0.141,0.404,0.278,0.629,0.457l0.337,0.284l0.243,0.219   c0.248,0.222,0.505,0.452,0.775,0.694c-0.356-0.369-0.661-0.687-0.92-0.956c-0.031-0.036-0.211-0.199-0.313-0.291   c-0.108-0.091-0.21-0.178-0.309-0.26c-0.186-0.154-0.362-0.28-0.52-0.394c-0.641-0.44-1.006-0.625-1.088-0.706   c-0.182-0.139,0.804,0.069,2.102,1.001c0.729,0.567,0.999,0.828,1.457,1.203c0.43,0.368,0.884,0.757,1.327,1.136   c0.884,0.762,1.722,1.484,2.226,1.918l-0.896-0.928c1.994,1.455,3.468,2.908,4.414,4.347c-2.336-2.116-4.414-4.347-4.054-3.438   c1.481,1.458,2.959,2.912,4.707,4.495l-1.712-1.316l7.364,7.25c1.398,0.915,3.672,2.506,5.041,3.162   c1.534,1.972,4.157,4.23,5.904,5.809l-0.874-0.673c3.016,3.43,10.36,10.429,11.179,10.819c2.112,2.493-17.638-14.916-1.163,1.162   c6.189,6.186,4.536,3.172,8.304,6.468c0,0-0.269-0.13,0.037,0.266c2.659,2.758,3.189,2.771,5.525,4.887   c-1.52-1.728-3.868-4.085-4.725-4.745c1.101,0.53,5.615,5.665,7.914,7.516c-3.132-2.253,5.067,5.401,2.75,3.537   c0.638,0.709,1.292,1.413,1.953,2.108c0.538,0.556,1.075,1.11,1.606,1.659c0.553,0.558,1.119,1.069,1.623,1.48   c1.021,0.836,1.749,1.229,2.07,1.225c0.541,0.898,1.035,1.504,1.454,1.926c0.003-0.614-0.077-1.431-0.127-2.23   c-0.05-0.815-0.07-1.594,0.052-2.496c-0.023,0.427,0.094,1.43,0.01,1.97c0.248,1.282,0.313,0.601,0.372-0.092   c0.06-0.648,0.114-1.325,0.34,0.59c-0.078-0.797-0.263-0.4-0.185,0.385c0.056,1.255,0.273,2.927,0.499,3.098   c0,0,0.109-0.643,0.219-1.285c0.109-0.733,0.219-1.467,0.219-1.467l0.12,1.479c0,0,0.152-1.291,0.303-2.582   c0.151-1.482,0.303-2.966,0.303-2.966c-0.1-0.204-0.224,0.351-0.285,0.611c0.014-0.443,0.029-0.891,0.043-1.341   c0.01-0.547,0.021-1.098,0.031-1.651c0.009-1.549,0.019-3.114,0.029-4.688c-0.009-3.146-0.019-6.323-0.028-9.454   c-0.041-6.261-0.105-12.336-0.065-17.606c-1.397-1.979-0.599-25.95-1.457-34.468c0.401,2.283,1.108,3.532,1.399,2.119   c0.059,1.899,0.623,5.788,0.506,10.095c-0.225,0.688-0.479,6.009-0.735,2.585c0.159,11.904,0.613-1.611,1.133,1.902   c-0.136-13.19-0.954-20.928-1.283-29.254l0.165-0.21l-0.313-6.287c-0.093,5.137-0.885,4.883-0.607-1.738l0.039,0.806   c0.333-3.777-0.059-11.636-0.007-17.535l-0.458-4c0.052-5.909,0.905-6.163,1.416-8.084c0.06-9.262-0.639-14.609-1.055-21.188   c0.372-2.975,0.46-16.847,0.911-9.497c-0.328-8.354-2.32-6.668-1.216-20.995l0.359,3.718c-0.075-13.698-0.789-33.235-0.411-39.546   c1.289,5.054,1.312-17.11,2.575-19.546c-0.289,0.679-0.385-4.468-0.539-5.218c0.148-1.128,0.292-3.005,0.031-4.998   c-0.254,5.342-1.312-3.755-0.802,6.458c-0.866-5.168-1.543-11.827-1.5-23.149l0.527,0.17l-0.16,8.958   c0.389-0.905,0.359,3.706,0.539,5.596c0.296-16.664,1.234,2.181,1.165-14.854c-0.342-1.646-0.201-0.58-0.336-5.007   c0.018,2.082,0.381,2.457,0.388-0.898l-0.421-3.223c0.879-5.949,0.572,9.847,1.19,4.772c0.414,6.578,0.635,17.971,1.308,15.849   c0.244-10.743-1.26-9.664-0.955-20.896l0.287-1.196c-0.195-3.951-0.659-4.589-0.939-6.752c0.163-0.195,0.285-1.199,0.332-3.737   c-0.678-6.671-0.811-11.099-1.55-17.253c0.555,16.379-0.515,14.002-0.021,30.908c-0.219-2.649-0.379-14.551-1.107-15.282   l0.528,0.158c-0.274-5.497-0.546-10.991-0.372-17.894l0.297,4.214c-0.367-9.15,0.801-15.21-0.077-22.43   c-0.047,2.55-0.031,4.62,0.049,6.194c-0.235-4.709-0.182-10.619-0.093-15.737l-0.871-10.591c0.262,0.093,0.277-6.619,0.695-3.381   c0.401-7.625-0.385-11.22-0.516-15.626c0.561-7.808,0.25,6.764,0.979,7.53c0.122-5.379,0.128-10.919,0.044-15.874   c-0.042-2.477-0.106-4.808-0.19-6.898c-0.05-1.045-0.096-2.03-0.14-2.944c-0.027-0.457-0.054-0.896-0.08-1.315   c-0.014-0.21-0.028-0.415-0.042-0.615c-0.006-0.126-0.017-0.14-0.02-0.354c-0.003-0.188-0.007-0.374,0.001-0.559   c-0.039,0.674-0.073,1.262-0.103,1.762c-0.031,0.406-0.057,0.742-0.077,1.005c-0.052,0.527-0.106,0.765-0.17,0.709   c0.083-0.163,0.114-1.328,0.125-2.754c-0.015-1.322,0.309-2.95,0.954-4.287c0.636-1.363,1.571-2.492,2.479-3.273   c0,0,0.563-0.612,1.24-1.122c0.669-0.518,1.44-0.915,1.44-0.915c1.979-0.717,3.475-0.651,4.392-0.561   c0.923,0.114,1.303,0.275,1.228,0.311c-0.075,0.048-0.608-0.015-1.528,0.017l-0.177,0.007l-0.045,0.002l-0.144,0.002l-0.012,0.001   l-0.048,0.007c-0.069,0.009-0.142,0.019-0.217,0.028c-0.171,0.019-0.351,0.039-0.537,0.059c-0.152,0.026-0.311,0.053-0.475,0.081   c-0.639,0.124-1.361,0.328-2.117,0.662c0.886-0.336,1.75-0.555,2.805-0.648l0.579-0.036l0.456-0.001   c0.121,0,0.243,0.005,0.365,0.013c0.488,0.023,0.982,0.087,1.474,0.187c1.967,0.396,3.861,1.438,5.256,2.98   c1.408,1.55,2.301,3.527,2.454,5.7l0.02,0.41l0.002,0.196l-0.008,0.514l-0.033,0.773c-0.029,0.512-0.073,1.018-0.136,1.513   c-0.051-0.821-0.091-1.67-0.121-2.535l-0.018-0.44l-0.02-0.3l-0.035-0.379c-0.053-0.413-0.123-0.826-0.229-1.232   c-0.202-0.814-0.521-1.603-0.927-2.337c-0.817-1.468-2.018-2.703-3.434-3.559c-1.416-0.856-3.054-1.325-4.629-1.368   c-0.717-0.026-1.585,0.044-2.319,0.21c-0.751,0.164-1.471,0.414-2.132,0.736c-1.324,0.646-2.418,1.561-3.226,2.573   c-1.647,2.037-2.089,4.382-2.012,5.954c-0.02-1.602,0.384-3.129,1.05-4.397c0.664-1.274,1.576-2.302,2.584-3.077   c2.006-1.559,4.473-2.069,6.461-1.867c2.069,0.191,3.874,1.063,5.217,2.263c1.35,1.204,2.293,2.75,2.751,4.471   c0.114,0.43,0.193,0.871,0.245,1.317c0.022,0.218,0.044,0.442,0.053,0.737c0.015,0.395-0.004,0.218-0.003,0.595   c-0.027,0.512-0.056,1.037-0.086,1.585c-0.054,1.096-0.1,2.282-0.131,3.617c-0.063,2.67-0.068,5.939,0.041,10.29   c-0.164,0.214-0.483-2.733-0.488,0.62c0.127,7.768,0.707,2.03,1.088,4.456c-0.213-5.98-0.004-8.763,0.428-12.233l0.279,1.596   c-0.145,0.242-0.152,3.997-0.293,5.104l0.567,0.967c-0.628-0.446-1.105,5.562-0.87,10.284c0.455-4.771,0.431-3.482,1.145-4.781   c0.678,6.64-0.664,7.492,0.053,14.935c-0.201-0.558-0.352-7.056-0.506-1.441c-0.027,4.648,0.461,4.028,0.617,7.145   c-0.523-3.51-0.911-2.609-1.531-6.414c-0.066-8.258,0.007-3.331-0.221-11.403l-0.442,6.832c-0.085-6.996-0.599-5.087-0.798-5.664   c-0.532,11.948,0.793,9.004,0.656,16.692c0.358,3.706,0.076-7.201,0.451-1.403c-0.076,7.188,0.341,1.639,0.568,9.708l-0.24-1.351   c-0.311,2.467,0.072,4.905,0.125,7.759c0.158,3.139,1.816-3.554,1.852,9.352c-0.146-0.632-0.238-0.865-0.299-0.865l-4.391-12.589   c0.01,13.076-0.111,28.144-0.406,43.287c-0.857,3.567-0.707-10.808-1.094-9.881l0.176-6.907c0.363,0.387,0.111,14.47,0.755,8.233   c-0.261-12.196,0.157-17.73-0.593-29.3c-0.861,3.594,0.152,15.238-0.513,22.765c0.056-3.16-0.038-5.828-0.161-8.418   c-0.113,7.067-0.233,14.631-0.361,22.672l0.207,1.807c0.098-5.419,0.17-9.169,0.201-9.652c-0.074,7.186,0.401,13.246,1.031,13.723   l0.021-1.276l0.197,2.596C261.957,159.852,261.917,161.537,261.877,163.214z M290.234,430.173c0.266-0.352,0.459-0.645,0.577-0.886   C290.689,429.538,290.94,429.372,290.234,430.173z M252.234,73.192c0.059-4.792,0.117-9.604,0.175-14.369l0.024-1.785l0.012-0.891   l0.006-0.444c0.005-0.11,0.008-0.213,0.021-0.318c0.083-0.837,0.479-1.62,1.08-2.188c0.59-0.569,1.41-0.911,2.171-0.949   c0.857-0.053,1.625,0.189,2.271,0.66c-1.061-0.984-2.788-1.162-4.07-0.487c-1.319,0.652-2.114,2.017-2.216,3.315   c-0.263,3-0.497,5.151-0.69,5.917c-0.194,0.766-0.348,0.145-0.453-2.4c-0.019-0.637-0.042-1.393-0.068-2.278   c-0.007-0.448-0.015-0.928-0.023-1.441c0.005-0.561,0.105-1.162,0.318-1.765c0.426-1.199,1.368-2.422,2.823-3.119   c1.431-0.696,3.394-0.797,5.103,0.164c0,0,0.458,0.225,0.866,0.536c0.41,0.307,0.759,0.69,0.759,0.69   c-0.626-0.809-1.646-1.604-2.982-1.948c-1.32-0.352-2.94-0.212-4.325,0.61c-1.381,0.8-2.469,2.279-2.748,3.975   c-0.076,0.405-0.092,0.885-0.083,1.242l0.011,1.11c0.009,0.741,0.019,1.482,0.028,2.217c0.22,2.38,0.736,7.409,1.213,11.822   c0.249,2.206,0.48,4.258,0.648,5.75c0.179,1.491,0.307,2.419,0.343,2.377c0.348-1.686-0.032-4.143,0.074-7.208L252.234,73.192z    M250.151,80.005c-0.139,5.432,0.137,4.196,0.385,5.039c-0.031-1.912-0.063-3.821-0.094-5.708   C250.38,80.058,250.292,80.414,250.151,80.005z M250.784,84.718c0.006-0.61,0.018-1.131,0.051-1.403L250.784,84.718z    M260.902,116.608c-0.007-0.242-0.009-0.328-0.015-0.558c-0.02,1.283-0.038,2.569-0.059,3.91   C260.868,119.44,260.899,118.449,260.902,116.608z M261.51,105.584l-0.455-1.289c-0.017,1.196-0.034,2.417-0.052,3.666   C261.209,107.548,261.388,107.117,261.51,105.584z M263.003,70.149c-0.546-2.234-0.569-9.717-1.199-10.176   c-0.161-0.477-0.224,1.097-0.274,2.863c-0.017,1.971-0.034,4.075-0.053,6.306c0.092,0.077,0.177,0.521,0.259,1.261   c0.079-2.203,0.235-3.675,0.622-2.782c-0.844,5.664,0.6,5.075,0.383,11.198C263.185,80.767,263.181,72.005,263.003,70.149z    M214.525,407.244c-0.084-0.162-0.407-0.685-0.876-1.402l3.27,2.83c5.344,5.537,9.062,10.534,14.509,14.882   c2.154,2.43,3.088,3.948,4.021,5.361c-1.104-1.14-2.131-2.212-2.968-3.124C217.946,412.867,226.171,417.784,214.525,407.244z    M251.745,407.723c0.039,0.793,0.142,1.078,0.142,1.078c-1.154-17.19-1.489-31.345-1.444-40.612   c-0.458,1.797-0.813,10.11-1.002,14.058l-0.521-3.498l0.41-2.185l-0.474-6.073c-0.351,1.698-0.278,6.604-0.547,9.881   c0.1,0.285,0.708,10.783,1.029,13.718l0.36-8.388c-0.146,2.265-0.025,13.392,0.108,17.804c0.262,0.087,0.665-7.517,0.097-8.474   c0.388-0.905,0.392,7.86,0.808,2.317c0.414,6.568,0.068,17.021-0.124,21.869l-0.652,0.821c-0.253,5.311,0.786,3.692,0.409,9.473   c-0.063-3.62-0.242-3.312-0.411-2.911c-0.169,0.412-0.328,0.924-0.353-1.627c-0.246,1.572-0.689-0.028-0.641,4.616   c0.432,2.34,0.296,3.616,0.148,4.576c-0.148,1.027-0.309,1.755,0.072,4.451c-0.122,0.863-0.24,0.121-0.343-0.451   c-0.103-0.583-0.192-1.014-0.255,0.177c-0.153-0.164-0.408-0.437-0.725-0.776c-1.622-1.302-2.484-1.889-2.882-1.98   c-0.408-0.102-0.36,0.283-0.419,0.669c1.399,1.48,2.376,2.362,3.104,2.933c0.732,0.575,1.23,0.853,1.787,1.241   c-0.126-1.313-0.211-2.55-0.158-3.982c0.146,1.554,0.293,3.108,0.293,4.309c-1.024-0.655-2.197-1.459-3.518-2.411   c1.411,1.626,2.465,2.702,3.27,3.447c-1.429-1.342-2.605-2.292-3.672-3.049c-0.606-0.432-1.199-0.875-1.764-1.312   c2.892,2.897,5.57,5.586,7.435,7.551c0.042-1.409,0.107-2.333,0.207-2.522l0.305,1.592c0.28-1.896,0.061-6.5-0.163-8.548   c-0.017-3.098-0.131-6.229-0.192-8.646c-0.061-2.46-0.068-4.129,0.129-4.758l0.279,2.153   C251.787,417.276,251.749,416.498,251.745,407.723z M252.438,179.051c-1.117,4.226-2.104,8.887-1.908,28.612l-0.077-1.552   c-0.701,9.94,0.927,19.381,0.148,31.475c-0.421-5.869-0.383-5.553-1.346-12.032l0.316,6.296c-0.608-1.744-0.293,4.537-0.322,9.156   l-0.723-4.078c0.208-2.773,0.283-9.961,0.118-9.751c0.08,1.574,0.913-9.491,0.703-15.502c-0.49,0.62-0.292,13.311-1.092,7.644   c0.335,4.995-0.153,5.615,0.019,10.835c-0.336-5.007-0.668-1.239-1.025-4.967l0.167,8.561c-0.163,0.223-0.362-12.468-0.965-5.453   c0.257,3.43-0.065,12.589,0.462,12.753l-0.162,0.211c-0.114,6.417,0.747,2.823,0.446,10.702c0.265,0.093,0.449-1.41,0.394-4.232   c-0.118-2.386-0.48-2.751-0.554-7.666c0.413-2.203-0.051,5.928,0.646,2.516c0.347-1.695-0.3-12.974,0.484-9.379l-0.113,6.405   c0.528,0.164,0.498,4.803,0.924,4.673c0.194,3.917-0.4,7.613,0.059,11.613c0.341,1.661,0.976-1.24,0.7,5.379   c-0.781,5.172-0.629,20.41-0.518,26.118l0.337,4.994c0.324-0.424-0.044-9.543,0.377-6.336l0.127,7.789l-0.203-0.601   c-0.045,2.581,0.173,5.221,0.289,7.576c-0.38-2.427-0.228-8.041-0.777-6.926c-0.108,3.656-0.313,4.214-0.207,7.579   c-0.039-0.734-0.093-1.366-0.17-1.273c-0.238,7.402,0.615,7.148,0.794,9.004c0.716,7.443,0.664-7.501,1.23-6.55l0.303,21.73   c-0.179-1.856-0.356-3.725-0.582-3.024c-0.254,5.329-0.427,0.121-0.4,7.604c0.752-0.533,0.469,9.423,0.903,14.709   c-0.308,2.47-0.37,2.978-0.379-2.423c-0.488,0.619-0.301,7.87-0.345,10.448c0.121,1.493,0.192,4.04,0.301,5.654   c0.243-2.162,0.549-1.239,0.757,3.443l0.103,0.272c0.134-7.676,0.667-19.604,0.167-24.417l0.242,1.36   c0.422-8.884-0.877-19.332,0.045-23.428c0.365,0.378,0.084-1.785,0.611-1.63l-0.412-6.541l0.239,1.36l-0.119-11.127l0.099,0.294   c-0.492-5.288-0.877-9.431-1.186-12.741c-0.23-0.013-0.301,0.332-0.47-1.432c-0.114-1.77-0.131-3.11-0.101-4.307   c-0.001-0.01-0.001-0.01-0.003-0.01h0.003c0.067-2.729,0.397-4.548,0.532-7.91l0.057,10.346c0.391,0.843,0.796-0.037,1.069-5.106   c0.015,2.073,0.319,2.94,0.364,0.375c-0.102-0.282-0.25-6.779-0.561-4.304c-0.143-9.828,0.883-25.74,0.141-40.662   c0.446,10.721,0.523-8.592,0.684,3.309c0.625-8.307-0.615-7.148-0.518-15.617c0.225-0.722-0.029,4.611,0.414,6.557   c0.25-14.08-1.009-23.757-0.82-37.378l0.487-0.583C252.578,184.891,252.51,182.028,252.438,179.051z M251.831,152.105   c-0.055-2.621-0.111-5.28-0.168-7.981c-0.005,0.263-0.009,0.508-0.015,0.784l-0.393-7.876c-0.19,4.84-0.726,8.028-0.975,1.255   c0.202,0.57,0.449-1.41,0.566,0.945c0.292-4.539,0.576-14.498-0.161-11.901c0.696,8.723-0.938,2.033-0.421,8.887   c-0.48-3.678-0.264-7.322-0.478-10.795c0.401,3.616,0.91-0.843,1.101-6.274c-0.119-2.364-0.005-8.763-0.2-12.692   c-0.45,1.401-0.708-2.02-0.821,4.381c-0.118-2.349-0.212-5.983,0.02-10.055c0.077,1.614,0.133,4.437,0.296,4.242   c0.414-2.628,0.396-5.705,0.573-7.403c-0.024-1.354-0.048-2.72-0.072-4.05c-0.04,0.397-0.09,0.741-0.155,0.985l-0.397-4.499   c0.212,5.993-0.208,2.77-0.472,2.693c0.527,0.161,0.068-3.858,0.051-5.909l-0.557,4.456c-0.279-2.154,0.402-7.604-0.149-6.479   c-0.221,9.454-0.126,13.088,0.04,21.637l0.433-3.47c0.306,9.646-0.742,5.949-0.721,16.772c0.395,4.499,0.027,16.277,0.819,16.5   c-0.241-1.357-0.704,6.74-0.346,10.449c0.724,4.099,0.821,16.497,1.151,12.741c0.009-3.35-0.389-7.858,0.082-10.551l0.151,6.498   l0.394-4.264C250.865,153.332,251.251,153.118,251.831,152.105z M255.73,89.022c-0.003,0.071-0.007,0.165-0.01,0.251   c0.001-0.096,0.001-0.189,0.002-0.279L255.73,89.022z" fill="#202020"/><path d="M197.261,402.827c1.448,1.194,4.694,4.481,4.329,3.567C201.367,406.775,195.707,400.604,197.261,402.827z" fill="#202020"/><path d="M200.873,407.028c0.302,0.158,0.257-0.116,1.734,1.339l-4.112-3.96L200.873,407.028z" fill="#202020"/><path d="M202.908,413.182c2.307,1.856,3.752,3.049,6.999,6.336c0.492,1.963-5.554-5.143-7.72-5.938   c5.918,6.057,8.399,7.253,13.387,12.116C213.439,422.95,203.647,412.803,202.908,413.182z" fill="#202020"/><polygon fill="#202020" points="199.32,411.452 202.816,414.616 202.531,414.244 199.032,411.078  "/><path d="M209.035,410.28c0.07,0.53,2.371,2.379,3.54,3.437C211.685,412.797,210.479,411.469,209.035,410.28z" fill="#202020"/><path d="M321.039,392.684c0,0,6.296-6.405,12.591-12.812l1.179-1.199l0.587-0.598l0.292-0.297l-0.517-0.588   c-0.099-0.139-0.016-0.012-0.031,0.002c-0.008,0.024,0.02-0.083,0.015-0.059c-0.006,0-0.01,0.031-0.041,0.039   c-0.042-0.003-0.166-0.114-0.044,0.04l0.05,0.072l0.025,0.036l0.007,0.009c0.021,0.025-0.154-0.182-0.08-0.095l0.003-0.003   l0.023-0.023c0.064-0.058,0.079-0.062,0.082-0.064c-0.011,0.009-0.073,0.022-0.074,0.02c-0.005-0.001,0.032,0.003,0.054,0.011   c0.046,0.021-0.008-0.008-0.006-0.009c0.088,0.039-0.104-0.021-0.037-0.003c0.02,0,0.068-0.02,0.062-0.018   c-0.004,0.002-0.021,0.013-0.059,0.044c0.003,0.01-0.081,0.047-0.027,0.056c-0.188-0.226,0.051-0.028,0.036-0.075   c0.064-0.121-0.011,0.08,0.011,0.016c0.001-0.019-0.021-0.072-0.016-0.058c0.005,0.008,0.021,0.033,0.064,0.081l0.484,0.555   l-0.185,0.188l-0.373,0.379C331.135,382.388,326.656,386.957,321.039,392.684z" fill="#202020"/><path d="M254.543,378.705c0.306,9.646,0.866,13.932,1.009,23.76c0.654-12.924-1.022-17.069-0.352-27.921   L254.543,378.705z" fill="#202020"/><path d="M257.134,382.107c-0.612,1.6-0.717-7.442-1.166-6.042c0.149,6.501,0.583,3.027,0.53,8.927L257.134,382.107z   " fill="#202020"/><path d="M247.02,425.148c0,0-0.08-0.396-0.159-0.792c-0.08-0.731-0.159-1.463-0.159-1.463s0.029,0.589,0.058,1.178   c0.007,0.136,0.015,0.271,0.021,0.397c0.007,0.067,0.013,0.131,0.019,0.185c0.011,0.108,0.018,0.182,0.018,0.182L247.02,425.148z" fill="#202020"/><polygon fill="#202020" points="256.59,338.145 256.729,339.211 256.922,334.375  "/><path d="M256.869,340.277l-0.141-1.066L256.869,340.277z" fill="#202020"/><path d="M245.708,422.06c0,0-0.033,1.087-0.065,2.174l-0.006,0.202l-0.006,0.07l-0.012,0.135   c-0.008,0.086-0.015,0.167-0.021,0.235c-0.012,0.137-0.021,0.228-0.021,0.228c0-0.021,0.281,0.848,0.281,0.869   c0,0-0.038-0.609-0.075-1.22l-0.014-0.221c-0.004-0.142-0.009-0.281-0.014-0.417c-0.009-0.381-0.017-0.736-0.024-1.041   C245.717,422.467,245.708,422.06,245.708,422.06z" fill="#202020"/><path d="M248.99,383.691l0.196,3.889C249.148,386.808,249.4,381.488,248.99,383.691z" fill="#202020"/><polygon fill="#202020" points="256.851,308.607 256.615,303.876 256.555,304.359 256.789,309.075  "/><path d="M247.303,353.251c-0.47,2.687-0.127-7.759-0.543-2.231C246.833,355.937,247.079,353.942,247.303,353.251z" fill="#202020"/><path d="M250.493,296.16c0-0.639-0.017-1.311-0.069-1.958C250.451,294.973,250.474,295.621,250.493,296.16z" fill="#202020"/><path d="M250.493,296.16c0,2.061-0.18,4.121-0.044,5.534C250.662,299.126,250.582,298.189,250.493,296.16z" fill="#202020"/><path d="M250.384,272.552l-0.034,1.868c-0.232-1.909-0.198-1.004-0.011,0.7c0.016,1.979,0.165,1.868,0.267,2.104   c0.06,0.396,0.119,0.79,0.183,1.218c-0.064-0.609-0.121-1.158-0.17-1.623C250.622,273.752,250.599,271.88,250.384,272.552z" fill="#202020"/><path d="M258.309,184.854c-0.175,6.901-0.26,8.686-0.625,8.311c-0.115,6.55,0.513,5.534,0.658,9.484   C258.272,195.237,258.44,193.722,258.309,184.854z" fill="#202020"/><path d="M258.342,202.649c0.01,0.831,0.019,1.624,0.029,2.587C258.383,204.158,258.367,203.359,258.342,202.649z" fill="#202020"/><polygon fill="#202020" points="246.392,300.144 245.833,295.856 245.911,297.43  "/><path d="M258.492,174.613c-0.022,1.28-0.006,3.331-0.131,4.338C258.727,179.32,258.516,173.337,258.492,174.613z" fill="#202020"/><path d="M251.335,201.227c-0.224,0.7-0.09,5.116-0.176,6.913C251.206,205.561,251.879,203.461,251.335,201.227z" fill="#202020"/><path d="M256.987,154.817c-0.023,1.28-0.269,3.247-0.571,2.395C256.594,159.071,257.239,161.587,256.987,154.817z" fill="#202020"/><polygon fill="#202020" points="251.4,188.615 251.276,189.601 251.51,194.323  "/><path d="M246.009,205.459c0.436,5.311,1.051-8.425,1.42,0.722c0.456-11.799-0.617,0.905-0.546-7.799   C246.735,203.479,246.184,205.977,246.009,205.459z" fill="#202020"/><path d="M246.882,198.382c0.023-0.74,0.036-1.543,0.038-2.414C246.905,196.932,246.892,197.71,246.882,198.382z" fill="#202020"/><path d="M249.639,123.636c0.046,0.771,0.096,1.298,0.147,1.785C249.751,124.813,249.706,124.234,249.639,123.636z" fill="#202020"/><path d="M246.522,170.585l0.654,7.96c-0.436-5.317-0.409-18.693-1.06-17.86c-0.132,4.332,0.041,9.543,0.322,11.685   L246.522,170.585z" fill="#202020"/><path d="M258.332,79.215l0.258,3.439l0.076-4.294C258.569,79.59,258.09,77.365,258.332,79.215z" fill="#202020"/><path d="M258.68,77.53l-0.014,0.831C258.683,78.177,258.69,77.914,258.68,77.53z" fill="#202020"/><path d="M249.955,138.692c-0.046,2.572-0.028,4.629,0.088,6.975C250.166,144.694,250.281,138.286,249.955,138.692z" fill="#202020"/><path d="M256.001,55.689c0,0,0.01,0.001,0.029,0.003c0.013,0,0.029,0.001,0.047,0.003h0.033h0   c-0.28,0,2.441,0,1.29,0.001v0.002v0.006v0.012v0.023l0.001,0.047l0.002,0.098c0.011,0.532,0.024,1.242,0.039,1.951   c0.027,1.419,0.056,2.838,0.056,2.838s-0.012-1.549-0.024-3.097c-0.003-0.387-0.006-0.774-0.009-1.137   c-0.001-0.182-0.003-0.357-0.004-0.523l-0.001-0.123v-0.06l-0.001-0.03v-0.007l-1.349-0.001h-0.003l-0.045-0.001   c-0.095-0.006-0.088-0.012-0.093-0.011L256.001,55.689z" fill="#202020"/><polygon fill="#202020" points="253.508,67.174 253.385,68.153 253.618,72.86 253.741,71.865  "/><path d="M245.677,63.152c-0.069,3.849,0.516,6.854,0.639,5.847l-0.026-7.461c-0.512,1.896,0.015,2.07-0.114,6.396   L245.677,63.152z" fill="#202020"/><path d="M254.465,263.783c-0.342-1.667-0.144-9.829,0.181-10.256c0.141,1.097,0.276,5.521,0.483,2.742l-0.84-6.458   c0.523-8.589,1.104,6.529,1.4,10.771c0.108-8.751-0.444-11.344-0.44-20.652c-0.075,2.745-0.285,4.48-0.465,5.931   c-0.591,0.316-0.329-8.357-0.376-14.557c-0.257,3.948-0.473,1.664-0.705-1.211c-0.019-0.518-0.052-0.861-0.092-1.106   c-0.028-0.335-0.055-0.651-0.083-0.976l0.001,0.744c-0.066-0.053-0.146,0.111-0.256,0.647c0.172,5.203-0.322,9.181-0.33,12.531   c0.961-3.31,0.222,11.405,0.518,15.616l0.095,4.862l0.002,1.818c-0.105,0.365-0.238-0.151-0.428-2.925   c0.189,2.314,0.123,10.033,0.432,9.32l0.014,17.615c-0.039,0.549-0.088,1.097-0.157,1.503c0.061,0.61,0.11,0.713,0.159,0.632   l0.062,76.748c0.076-3.786,0.295-7.062,0.401-10.966c0.638,5.859,0.115-6.401,0.719-4.682c0.219,2.634,0.15,6.488,0.003,8.784   c0.305,0.855,0.575-2.417,0.939-2.039c0.383-9.68-1.075-11.161-0.854-20.624c0.365,0.375,0.685,3.3,0.635-2.894l0.079,1.574   c-0.409-9.919,0.826-7.729-0.176-13.972l0.527,0.164c-0.397-4.499-0.4-13.252-0.473-18.186l0.102,0.295   c-0.604-13.839-0.128-7.769-0.381-23.308l0.615,7.151c0.254-5.36-0.415-6.568-0.346-10.417c0.102,0.275,0.487-0.617,0.583,3.018   l-0.938-18.854C254.679,257.67,254.689,263.083,254.465,263.783z" fill="#202020"/><path d="M255.249,239.93c0.028-0.998,0.04-2.132,0.02-3.47C255.261,237.752,255.255,238.865,255.249,239.93z" fill="#202020"/><path d="M253.644,372.514l-0.005-5.392C253.607,368.793,253.597,370.534,253.644,372.514z" fill="#202020"/><path d="M254.097,212.905c-0.272,3.269-0.381-2.448-0.584-3.018l0.01,11.709c0.203-0.053,0.431,1.106,0.616,0.871   L254.097,212.905z" fill="#202020"/><path d="M253.14,224.986c0.142,0.396,0.268,1.636,0.388,3.024l-0.005-6.414   C253.371,221.636,253.232,222.356,253.14,224.986z" fill="#202020"/><polygon fill="#202020" points="263.981,223.747 263.999,225.82 264.156,228.955  "/><path d="M263.088,256.167c0.308-2.476,0.074-7.173-0.004-8.744C263.094,252.836,262.977,250.49,263.088,256.167z" fill="#202020"/><polygon fill="#202020" points="266.388,249.477 266.563,254.695 266.623,254.209  "/><path d="M255.719,412.365c0.011,0.854,0.022,1.686,0.034,2.55C255.756,413.747,255.741,412.984,255.719,412.365z" fill="#202020"/><path d="M255.217,367.591c-0.592,12.447-0.492-8.155-1.25-4.245l0.251,6.773l-0.203-0.576l0.066,8.261   c0.348-1.695,0.37-2.969,0.735-2.6c-0.143,11.027-0.434,3.477-0.895,11.566l0.066,12.326l-0.109-0.997   c0.008,1.037,0.054,1.496,0.113,1.853l0.228,55.642c0.145,6.587,0.309,4.2,0.504,1.494c0.195-2.755,0.422-5.753,0.691-1.636   c0.031-7.379,0.07-16.552,0.102-24.035c-0.005-1.853-0.011-3.601-0.016-5.19c-0.009-0.729-0.018-1.422-0.026-2.073   c-0.015-0.425-0.029-0.821-0.042-1.188c-0.066-1.462-0.178-2.415-0.36-2.601c0.101,0.295,0.302,0.874,0.388-0.901l-0.6-5.066   l-0.191,4.831c-0.598-5.095-0.465-21.545-0.094-24.52c0.204,9.354,0.924,4.66,0.533,17.693c0.185-0.586,0.51-2.972,0.611-0.037   C255.508,397.095,255.84,383.409,255.217,367.591z" fill="#202020"/><path d="M318.955,393.962l-0.039,0.132C319.087,393.874,319.132,393.792,318.955,393.962z" fill="#202020"/><path d="M315.268,397.521l-4.758,5.769l8.165-8.246l0.241-0.95c-0.635,0.815-3.332,3.871-4.586,4.849   L315.268,397.521z" fill="#202020"/><path d="M304.704,409.706c4.087-4.388,3.44-4.575,0.938-2.454c3.697-4.085,2.501-1.604,4.74-4.725   c-0.389-0.213-5.008,4.76-6.055,5.917L304.704,409.706z" fill="#202020"/><polygon fill="#202020" points="268.587,445.384 270.652,442.972 265.609,447.925  "/><path d="M270.652,442.972l5.054-4.959c-0.432,0.175-0.849,0.34-1.688,1.004L270.652,442.972z" fill="#202020"/><path d="M284.966,428.993c1.265-1.202,2.652-2.544,4.325-4.193L284.966,428.993z" fill="#202020"/><path d="M281.527,432.219l0.153-0.044l3.286-3.182C283.736,430.146,282.633,431.181,281.527,432.219z" fill="#202020"/><path d="M275.705,438.013c0.505-0.214,1.059-0.468,2.451-1.653c0.348-0.297,0.749-0.652,1.214-1.079   c0.304-0.277,0.651-0.595,1.052-0.961c0.674-0.63,1.503-1.45,2.535-2.523l-1.277,0.378L275.705,438.013z" fill="#202020"/><polygon fill="#202020" points="265.766,287.428 265.999,292.141 266.063,291.642 265.828,286.932  "/><path d="M265.388,314.621c0.073,1.165,0.149,2.048,0.228,2.851C265.57,316.245,265.5,315.268,265.388,314.621z" fill="#202020"/><path d="M268.211,334.836c-0.416,5.544-0.551-7.647-0.734,2.618c-0.387,0.905-0.887-3.907-0.693-8.74   c0.363,0.384,0.232,4.709,0.604,1.738c-0.421-3.211-0.134-4.432-0.683-3.313c-0.343-5.401-0.732-6.002-1.09-9.668   c0.242,6.529-0.322,20.237,0.383,28.522c0.66,4.567,1.561,1.797,2.514,1.815C268.736,347.122,268.842,335.282,268.211,334.836z" fill="#202020"/><path d="M269.162,326.113c0.047-2.565,0.008-3.349-0.07-4.923C268.766,321.614,269.147,324.041,269.162,326.113z" fill="#202020"/><path d="M261.985,385.073c0.137,0.489,0.305,5.131,0.539,4.133l-0.172-7.036   C262.329,383.821,262.164,384.403,261.985,385.073z" fill="#202020"/><path d="M262.28,379.083l0.072,3.087C262.364,381.398,262.346,380.443,262.28,379.083z" fill="#202020"/><path d="M261.901,385.407c0.028-0.111,0.054-0.211,0.084-0.334C261.957,384.973,261.928,384.992,261.901,385.407z" fill="#202020"/><path d="M297.208,417.086c0.115,0.256,2.222-2.072,3.28-3.24C299.568,414.735,298.237,415.945,297.208,417.086z" fill="#202020"/><path d="M301.437,410.335l-2.105,1.812C300.112,411.542,300.51,411.23,301.437,410.335z" fill="#202020"/><path d="M276.301,445.574c-0.021,0.093-0.135,0.269-0.302,0.491C276.171,445.847,276.277,445.68,276.301,445.574z" fill="#202020"/><path d="M275.999,446.065c-1.185,1.493-5.557,5.386-6.808,7.105l0.117-0.26l-2.626,2.904   C269.254,453.202,274.723,447.791,275.999,446.065z" fill="#202020"/></g></svg>